# AST/ASF file generated using VICON BodyLanguage
# -----------------------------------------------
:version 1.10
:name VICON
:units
  mass 1.0
  length 0.45
  angle deg
:documentation
   .ast/.asf automatically generated from VICON data using
   VICON BodyBuilder and BodyLanguage model FoxedUp or BRILLIANT.MOD
:root
   order TX TY TZ RX RY RZ
   axis XYZ
   position 0 0 0  
   orientation 0 0 0 
:bonedata
  begin
     id 1 
     name lhipjoint
     direction 0.521452 -0.77106 0.36545 
     length 2.0933 
     axis 0 0 0  XYZ
  end
  begin
     id 2 
     name lfemur
     direction 0.34202 -0.939693 0  
     length 6.83441  
     axis 0 0 20  XYZ
    dof rx ry rz
    limits (-160.0 20.0)
           (-70.0 70.0)
           (-60.0 70.0)
  end
  begin
     id 3 
     name ltibia
     direction 0.34202 -0.939693 0   
     length 7.28749   
     axis 0 0 20   XYZ
    dof rx
    limits (-10.0 170.0)
  end
  begin
     id 4 
     name lfoot
     direction 0.100608 -0.276418 0.955757   
     length 1.52195   
     axis -90 7.62852e-016 20   XYZ
    dof rx rz
    limits (-45.0 90.0)
           (-70.0 20.0)
  end
  begin
     id 5 
     name ltoes
     direction 1.53558e-011 -4.21907e-011 1   
     length 0.770459   
     axis -90 7.62852e-016 20   XYZ
    dof rx
    limits (-90.0 20.0)
  end
  begin
     id 6 
     name rhipjoint
     direction -0.488071 -0.788702 0.373812   
     length 2.04648  
     axis 0 0 0  XYZ 
  end
  begin
     id 7 
     name rfemur
     direction -0.34202 -0.939693 0   
     length 6.92583   
     axis 0 0 -20   XYZ
    dof rx ry rz
    limits (-160.0 20.0)
           (-70.0 70.0)
           (-70.0 60.0)
  end
  begin
     id 8 
     name rtibia
     direction -0.34202 -0.939693 0   
     length 7.41043   
     axis 0 0 -20   XYZ
    dof rx
    limits (-10.0 170.0)
 end
 begin
     id 9 
     name rfoot
     direction -0.0784433 -0.215521 0.973343   
     length 1.67708  
     axis -90 -7.62852e-016 -20   XYZ
    dof rx rz
    limits (-45.0 90.0)
           (-20.0 70.0)
  end
  begin
     id 10 
     name rtoes
     direction -1.53551e-011 -4.21842e-011 1   
     length 0.849787   
     axis -90 -7.62852e-016 -20   XYZ
    dof rx
    limits (-90.0 20.0)
  end
  begin
     id 11 
     name lowerback
     direction -0.0122332 0.997575 -0.0685192   
     length 1.98724   
     axis 0 0 0   XYZ
    dof rx ry rz
    limits (-20.0 45.0)
           (-30.0 30.0)
           (-30.0 30.0)
  end
  begin
     id 12 
     name upperback
     direction 0.0182347 0.999724 -0.0148421   
     length 1.99029   
     axis 0 0 0   XYZ
    dof rx ry rz
    limits (-20.0 45.0)
           (-30.0 30.0)
           (-30.0 30.0)
  end
  begin
     id 13 
     name thorax
     direction 0.0242908 0.99956 0.0170184   
     length 1.99573   
     axis 0 0 0   XYZ
    dof rx ry rz
    limits (-20.0 45.0)
           (-30.0 30.0)
           (-30.0 30.0)
  end
  begin
     id 14 
     name lowerneck
     direction 0.0654488 0.985533 0.156338   
     length 1.4285   
     axis 0 0 0   XYZ
    dof rx ry rz
    limits (-20.0 45.0)
           (-30.0 30.0)
           (-30.0 30.0)
  end
  begin
     id 15 
     name upperneck
     direction -0.02953 0.998556 -0.0448842   
     length 1.44709   
     axis 0 0 0   XYZ
    dof rx ry rz
    limits (-20.0 45.0)
           (-30.0 30.0)
           (-30.0 30.0)
  end
  begin
     id 16
     name head
     direction -0.0155588 0.999386 -0.0314063  
     length 1.44689  
     axis 0 0 0   XYZ
    dof rx ry rz
    limits (-20.0 45.0)
           (-30.0 30.0)
           (-30.0 30.0)
  end
  begin
     id 17 
     name lclavicle
     direction 0.968229 0.236071 -0.0824755  
     length 3.60593  
     axis 0 0 0   XYZ
    dof ry rz
    limits (-20.0 10.0)
           (0.0 20.0)
  end
  begin
     id 18 
     name lhumerus
     direction 1 -4.48968e-011 7.8138e-029   
     length 5.06035   
     axis 180 -30 -90   XYZ
    dof rx ry rz
    limits (-60.0 90.0)
           (-90.0 90.0)
           (-90.0 90.0)
  end
  begin
     id 19
     name lradius
     direction 1 -4.48967e-011 9.02887e-028   
     length 3.1478   
     axis 180 -30 -90   XYZ
    dof rx
    limits (-10.0 170.0)
  end
  begin
     id 20
     name lwrist
     direction 1 -4.48961e-011 7.20928e-028   
     length 1.5739   
     axis -5.52449e-016 90 90   XYZ
    dof ry
    limits (-180.0 0.0)
 end
  begin
     id 21 
     name lhand
     direction 1 -4.48972e-011 1.44186e-027   
     length 0.606747   
     axis -9.20027e-016 90 90   XYZ
    dof rx rz
    limits (-90.0 90.0)
           (-45.0 45.0)
  end
  begin
     id 22 
     name lfingers
     direction 1 -4.48943e-011 2.88371e-027   
     length 0.489175   
     axis -1.84005e-015 90 90   XYZ
    dof rx
    limits (0.0 90.0)
  end
  begin
     id 23
     name lthumb
     direction 0.707107 -6.34917e-011 0.707107   
     length 0.70236   
     axis -90 45 2.85299e-015   XYZ
    dof rx rz
    limits (-45.0 45.0)
           (-45.0 45.0)
  end
  begin
     id 24 
     name rclavicle
     direction -0.978165 0.207816 0.0022268   
     length 3.35425  
     axis 0 0 0   XYZ 
    dof ry rz
    limits (-10.0 20.0)
           (-20.0 0.0)
  end
  begin
     id 25 
     name rhumerus
     direction -1 -4.48964e-011 -4.02159e-027  
     length 5.12273   
     axis 180 30 90   XYZ
    dof rx ry rz
    limits (-90.0 60.0)
           (-90.0 90.0)
           (-90.0 90.0)
  end
  begin
     id 26 
     name rradius
     direction -1 -4.48966e-011 1.62746e-027   
     length 3.422   
     axis 180 30 90   XYZ
    dof rx
    limits (-10.0 170.0)
  end
  begin
     id 27 
     name rwrist
     direction -1 -4.4896e-011 7.20928e-028   
     length 1.711   
     axis -5.52449e-016 -90 -90   XYZ
    dof ry
    limits (-180.0 0.0)
  end
  begin
     id 28
     name rhand
     direction -1 -4.48979e-011 1.44186e-027   
     length 0.704599   
     axis -9.20027e-016 -90 -90   XYZ
    dof rx rz
    limits (-90.0 90.0)
           (-45.0 45.0)
  end
  begin
     id 29
     name rfingers
     direction -1 -4.48962e-011 2.88371e-027   
     length 0.568066   
     axis -1.84005e-015 -90 -90   XYZ
    dof rx
    limits (0.0 90.0)
  end
  begin
     id 30
     name rthumb
     direction -0.707107 -6.34949e-011 0.707107   
     length 0.815633   
     axis -90 -45 -2.85299e-015   XYZ
    dof rx rz
    limits (-45.0 45.0)
           (-45.0 45.0)
  end
:hierarchy
  begin
    root lhipjoint rhipjoint lowerback
    lhipjoint lfemur
    lfemur ltibia
    ltibia lfoot
    lfoot ltoes
    rhipjoint rfemur
    rfemur rtibia
    rtibia rfoot
    rfoot rtoes
    lowerback upperback
    upperback thorax
    thorax lowerneck lclavicle rclavicle
    lowerneck upperneck
    upperneck head
    lclavicle lhumerus
    lhumerus lradius
    lradius lwrist
    lwrist lhand lthumb
    lhand lfingers
    rclavicle rhumerus
    rhumerus rradius
    rradius rwrist
    rwrist rhand rthumb
    rhand rfingers
  end

#!OML:ASF E:\id_vita\Project 1\Capture day 1\Session 1\Male1.ASF
:FULLY-SPECIFIED
:DEGREES
238
root -0.184451 27.1084 0.293203 -151.146 81.2448 -159.101
lowerback 2.52369 -1.02342 1.16352
upperback 3.46943 -1.29885 2.81114
thorax 2.18735 -0.618379 2.24538
lowerneck -2.84696 1.42822 4.15974
upperneck 5.56137 1.649 1.76473
head 2.25703 0.976317 -0.102606
rclavicle 1.23246e-014 -1.98785e-015
rhumerus -33.1834 2.69159 -85.4266
rradius 40.7002
rwrist -5.20978
rhand -23.0112 37.3735
rfingers 7.12502
rthumb 3.4323 7.4214
lclavicle 1.23246e-014 -1.98785e-015
lhumerus -33.1474 26.7144 72.5846
lradius 13.9262
lwrist -12.8821
lhand -13.5347 41.7869
lfingers 7.12502
lthumb 12.5777 71.3883
rfemur -10.1685 -3.25751 27.8478
rtibia 21.6457
rfoot -17.2175 -10.3376
rtoes 2.32967
lfemur -34.7964 2.29949 -16.3764
ltibia 36.4368
lfoot -17.5781 -7.97587
ltoes 36.8223
239
root -0.14211 27.1104 0.28319 -150.425 81.3992 -158.364
lowerback 2.42177 -0.92682 1.20727
upperback 3.51378 -1.17379 2.7506
thorax 2.28404 -0.554322 2.15599
lowerneck -2.68351 1.29876 4.30862
upperneck 5.54672 1.47901 1.7976
head 2.22165 0.89577 -0.123392
rclavicle 1.66979e-014 -5.56597e-015
rhumerus -33.1157 2.55144 -85.5337
rradius 40.3384
rwrist -5.15081
rhand -23.0509 37.4069
rfingers 7.12502
rthumb 3.39396 7.45422
lclavicle 1.66979e-014 -5.56597e-015
lhumerus -33.2492 26.8836 72.3595
lradius 13.8309
lwrist -13.2476
lhand -13.3635 41.6188
lfingers 7.12502
lthumb 12.7428 71.2099
rfemur -9.78661 -3.25484 27.8402
rtibia 21.2056
rfoot -17.1639 -10.1479
rtoes 2.27062
lfemur -34.8402 1.7281 -16.1901
ltibia 35.7603
lfoot -17.4315 -7.11846
ltoes 36.7946
240
root -0.0967936 27.1114 0.274081 -150.491 81.4591 -158.29
lowerback 2.44099 -0.952961 1.05494
upperback 3.55113 -1.20982 2.78802
thorax 2.31707 -0.576218 2.28036
lowerneck -2.55747 1.25278 4.16979
upperneck 5.70567 1.42575 1.85726
head 2.24835 0.871513 -0.0824596
rclavicle -1.39149e-015 2.06736e-014
rhumerus -32.9841 2.84909 -85.6099
rradius 39.8846
rwrist -5.14176
rhand -23.038 37.1247
rfingers 7.12502
rthumb 3.40645 7.17215
lclavicle -1.39149e-015 2.06736e-014
lhumerus -33.4877 27.4145 72.0679
lradius 13.6692
lwrist -13.7558
lhand -13.3697 41.7732
lfingers 7.12502
lthumb 12.7368 71.3647
rfemur -9.22436 -3.2309 27.7863
rtibia 20.7553
rfoot -17.1352 -10.1134
rtoes 2.29909
lfemur -34.7385 1.20923 -16.0781
ltibia 35.1739
lfoot -17.3179 -6.539
ltoes 36.8577
241
root -0.0487153 27.1113 0.263166 -149.023 81.5561 -156.756
lowerback 2.72942 -0.913529 1.24534
upperback 3.26791 -1.14431 2.73646
thorax 1.85588 -0.540463 2.12548
lowerneck -2.44771 1.40359 4.36191
upperneck 5.8785 1.62747 1.77933
head 2.29127 0.978315 -0.13393
rclavicle 2.5842e-015 -8.74653e-015
rhumerus -33.4294 2.91618 -85.8143
rradius 39.5293
rwrist -4.94051
rhand -22.9278 36.9813
rfingers 7.12502
rthumb 3.51285 7.0305
lclavicle 2.5842e-015 -8.74653e-015
lhumerus -34.1848 27.1682 71.7103
lradius 13.7466
lwrist -13.723
lhand -13.4241 42.1587
lfingers 7.12502
lthumb 12.6844 71.7535
rfemur -8.79347 -3.19893 27.911
rtibia 20.3548
rfoot -17.1237 -9.96574
rtoes 2.15828
lfemur -34.6942 0.784318 -15.7642
ltibia 34.6831
lfoot -17.4037 -5.98735
ltoes 36.8881
242
root 0.00173093 27.112 0.251803 -147.807 81.8085 -155.599
lowerback 3.00489 -0.78515 1.24813
upperback 2.85269 -0.962848 2.69137
thorax 1.26798 -0.453081 2.08068
lowerneck -2.02334 1.40341 4.37097
upperneck 6.09239 1.6477 1.86445
head 2.2842 0.996285 -0.109589
rclavicle -1.40143e-014 3.4191e-014
rhumerus -34.1554 2.8466 -85.8979
rradius 39.2462
rwrist -4.64153
rhand -22.9314 37.2202
rfingers 7.12502
rthumb 3.50937 7.26934
lclavicle -1.40143e-014 3.4191e-014
lhumerus -35.0452 26.808 71.4338
lradius 13.8927
lwrist -13.7126
lhand -13.387 42.3012
lfingers 7.12502
lthumb 12.7201 71.8937
rfemur -8.48638 -3.20699 27.895
rtibia 19.9628
rfoot -17.1099 -9.73584
rtoes 1.66418
lfemur -34.7404 0.385755 -15.5816
ltibia 34.2789
lfoot -17.6698 -5.35635
ltoes 36.1431
243
root 0.0519482 27.113 0.242377 -147.175 82.0268 -154.904
lowerback 2.2391 -0.615583 1.12901
upperback 3.3427 -0.76766 2.66742
thorax 2.19768 -0.355479 2.11088
lowerneck -2.29471 1.44085 4.47818
upperneck 5.78681 1.6878 1.70234
head 2.23632 1.00615 -0.177817
rclavicle 1.39149e-015 -4.09496e-014
rhumerus -33.6273 2.54279 -85.833
rradius 39.0932
rwrist -4.58498
rhand -22.7477 37.4385
rfingers 7.12502
rthumb 3.6867 7.49067
lclavicle 1.39149e-015 -4.09496e-014
lhumerus -34.2667 27.0283 71.7661
lradius 13.6923
lwrist -14.0331
lhand -13.3502 42.0794
lfingers 7.12502
lthumb 12.7556 71.6697
rfemur -8.02546 -3.09625 27.8439
rtibia 19.5772
rfoot -17.0602 -9.70757
rtoes 1.29971
lfemur -34.6577 0.129673 -15.4876
ltibia 33.9816
lfoot -17.8835 -5.04924
ltoes 35.5513
244
root 0.0996213 27.1076 0.2327 -146.217 81.9927 -153.758
lowerback 2.15076 -0.573839 1.30672
upperback 3.49205 -0.713543 2.61331
thorax 2.39682 -0.322165 1.95455
lowerneck -2.50457 1.36336 4.48963
upperneck 5.85665 1.56357 1.83353
head 2.29455 0.951363 -0.139942
rclavicle 9.93923e-017 -4.01545e-014
rhumerus -33.6564 2.25911 -85.9649
rradius 39.0822
rwrist -4.66519
rhand -21.9604 37.4705
rfingers 7.12502
rthumb 4.44703 7.53717
lclavicle 9.93923e-017 -4.01545e-014
lhumerus -34.0263 26.7641 71.8653
lradius 13.5822
lwrist -13.8083
lhand -13.4864 41.7589
lfingers 7.12502
lthumb 12.6243 71.3574
rfemur -7.47198 -3.05361 27.9853
rtibia 19.245
rfoot -17.0433 -9.75136
rtoes 1.38064
lfemur -34.4711 -0.0666586 -15.2697
ltibia 33.7642
lfoot -17.963 -5.19818
ltoes 35.8678
245
root 0.147198 27.0979 0.221412 -144.908 81.8401 -152.294
lowerback 2.24495 -0.714294 1.42409
upperback 3.48097 -0.895357 2.7622
thorax 2.33807 -0.410568 2.04338
lowerneck -2.59158 1.3688 4.04209
upperneck 6.01224 1.57062 2.04728
head 2.35452 0.954651 0.00545537
rclavicle 1.22253e-014 7.15625e-015
rhumerus -33.7982 2.53814 -85.9909
rradius 38.9518
rwrist -4.53503
rhand -21.7832 37.0533
rfingers 7.12502
rthumb 4.61811 7.12367
lclavicle 1.22253e-014 7.15625e-015
lhumerus -34.3661 27.5288 71.5497
lradius 13.4987
lwrist -14.239
lhand -13.5152 41.8589
lfingers 7.12502
lthumb 12.5966 71.4592
rfemur -6.99287 -3.06928 28.2283
rtibia 18.9909
rfoot -17.0648 -9.79175
rtoes 1.3493
lfemur -34.3227 -0.408464 -14.9341
ltibia 33.6119
lfoot -17.9899 -5.291
ltoes 35.9008
246
root 0.194346 27.0906 0.210567 -142.816 81.9546 -150.156
lowerback 2.19794 -0.681702 1.53153
upperback 3.46022 -0.852731 2.78178
thorax 2.34073 -0.386963 2.00279
lowerneck -2.63698 1.4352 3.99846
upperneck 6.0538 1.65943 2.00726
head 2.37745 0.997441 0.00331833
rclavicle 1.68967e-015 3.4191e-014
rhumerus -33.8797 2.45465 -86.0615
rradius 38.596
rwrist -4.00757
rhand -21.787 37.1881
rfingers 7.12502
rthumb 4.61448 7.25832
lclavicle 1.68967e-015 3.4191e-014
lhumerus -34.5651 27.9575 71.2209
lradius 13.4342
lwrist -14.695
lhand -13.2857 42.1605
lfingers 7.12502
lthumb 12.8178 71.747
rfemur -6.68256 -2.89912 28.3889
rtibia 18.8017
rfoot -17.0311 -9.74608
rtoes 1.04216
lfemur -34.2336 -0.740549 -14.5866
ltibia 33.532
lfoot -18.0253 -5.06879
ltoes 35.4476
